<?xml version="1.0" standalone="no"?>
<!DOCTYPE svg PUBLIC "-//W3C//DTD SVG 20010904//EN"
 "http://www.w3.org/TR/2001/REC-SVG-20010904/DTD/svg10.dtd">
<svg version="1.0" xmlns="http://www.w3.org/2000/svg"
 width="322.000000pt" height="322.000000pt" viewBox="0 0 322.000000 322.000000"
 preserveAspectRatio="xMidYMid meet">
<metadata>
Created by potrace 1.14, written by Peter Selinger 2001-2017
</metadata>
<g transform="translate(0.000000,322.000000) scale(0.100000,-0.100000)"
fill="#000000" stroke="none">
<path d="M2404 3065 c-10 -8 -30 -15 -43 -15 -14 0 -32 -7 -41 -15 -20 -18
-147 -55 -190 -55 -16 0 -30 -4 -30 -9 0 -5 -17 -12 -37 -16 -21 -5 -45 -9
-53 -11 -8 -2 -26 -5 -40 -8 -192 -41 -630 -82 -630 -58 0 4 -27 9 -60 10 -39
2 -80 11 -113 27 -29 13 -59 25 -67 26 -46 5 -71 -3 -86 -27 -17 -25 -17 -26
12 -49 16 -14 38 -24 48 -25 11 0 27 -7 37 -16 9 -8 28 -17 41 -19 12 -2 54
-13 93 -24 38 -12 77 -18 87 -15 10 3 70 7 134 9 136 5 148 -1 132 -64 -20
-75 -27 -107 -33 -141 -8 -57 -39 -98 -69 -95 -15 2 -41 -7 -63 -23 -21 -14
-56 -38 -78 -53 -22 -15 -51 -41 -65 -58 -26 -33 -50 -41 -50 -17 0 8 -16 24
-35 36 -19 12 -35 25 -35 30 0 9 -31 18 -109 31 -112 18 -307 -41 -373 -114
-16 -16 -28 -35 -28 -42 0 -7 -11 -29 -25 -49 -14 -20 -25 -46 -25 -57 0 -11
-6 -32 -13 -47 -17 -34 -1 -185 24 -223 9 -13 20 -39 23 -57 4 -17 11 -32 16
-32 4 0 26 -17 49 -38 23 -21 63 -46 90 -57 27 -10 57 -24 66 -31 17 -13 17
-15 -8 -35 -15 -11 -27 -26 -27 -32 0 -6 -12 -28 -26 -48 -23 -34 -26 -47 -25
-131 0 -55 4 -94 11 -96 5 -2 13 -21 16 -43 5 -29 20 -53 63 -96 64 -67 90
-86 169 -128 52 -27 57 -33 58 -65 3 -75 22 -130 59 -175 20 -26 36 -47 34
-48 -67 -36 -146 -106 -152 -134 -3 -16 -14 -38 -25 -51 -66 -76 -12 -243 101
-315 103 -65 152 -85 233 -95 75 -9 84 -8 168 20 114 39 166 65 213 110 66 62
77 82 89 153 2 11 6 30 9 42 3 12 1 25 -5 28 -5 3 -10 29 -10 57 0 38 -5 57
-20 73 -22 23 -18 55 5 55 21 0 101 84 124 129 12 22 24 62 27 88 9 84 12 88
61 113 26 14 50 25 53 26 25 5 62 27 66 39 4 8 11 15 18 15 12 0 57 47 91 95
50 72 70 125 90 246 6 31 -2 75 -30 164 -5 17 0 23 28 33 18 7 45 12 60 12 14
0 30 6 34 14 9 17 79 66 93 66 6 0 10 5 10 10 0 6 12 29 26 51 36 57 53 120
59 218 7 95 -17 222 -47 255 -10 11 -18 27 -18 35 0 9 -16 27 -36 41 -19 14
-41 30 -47 36 -7 6 -40 23 -75 39 -50 22 -70 26 -109 22 -27 -4 -70 -9 -98
-13 -27 -3 -64 -12 -82 -20 -17 -8 -38 -14 -47 -14 -8 0 -19 -6 -23 -13 -4 -7
-29 -21 -55 -31 -27 -10 -52 -25 -58 -34 -8 -14 -9 -14 -10 -2 0 24 -77 93
-125 113 -5 3 -30 10 -55 17 -25 7 -51 14 -58 16 -15 4 -8 42 18 94 22 44 42
141 38 182 -2 21 2 32 12 34 8 2 35 8 60 14 50 13 67 15 155 24 33 4 71 10 85
15 14 5 52 16 85 26 33 9 81 23 107 31 26 8 52 14 58 14 6 0 30 9 52 20 23 11
56 20 73 20 56 0 89 59 54 97 -26 27 -29 28 -55 8z"/>
</g>
</svg>
